<svg xmlns="http://www.w3.org/2000/svg" xmlns:xlink="http://www.w3.org/1999/xlink" id="Layer_1" x="0" y="0" version="1.1" viewBox="0 0 120 139" xml:space="preserve" style="enable-background:new 0 0 120 139"><style type="text/css">.st0{fill-rule:evenodd;clip-rule:evenodd;fill:url(#SVGID_1_)}</style><radialGradient id="SVGID_1_" cx="43" cy="20.5" r="124.326" gradientUnits="userSpaceOnUse"><stop offset="0" style="stop-color:#00fcff"/><stop offset="1" style="stop-color:#69008c"/></radialGradient><path d="M60,0L0,34.8v69.5L60,139l60-34.8V34.8L60,0z M50.7,105.5c-6,3.4-13.7,1.3-17.2-4.7c-3.4-6-1.3-13.6,4.7-17	l18.6-10.5L78,85.7c1.6,0.9,3.3,1.5,5,1.6L50.7,105.5z M98.3,75.9C94.7,82,87,84.2,80.9,80.7L37.5,55.5c-5.9-3.4-7.9-11.1-4.4-17.2	c3.5-6.1,11.1-8.2,17-4.8l43.5,25C99.7,61.9,101.8,69.8,98.3,75.9z" class="st0"/></svg>